
<svg version="1.1" id="Isolation_Mode" xmlns="http://www.w3.org/2000/svg" xmlns:xlink="http://www.w3.org/1999/xlink" x="0px"
	 y="0px" viewBox="0 0 1256 680.71" style="enable-background:new 0 0 1256 680.71;" xml:space="preserve">
<style type="text/css">
	.st0{fill:#0047BA;}
	.st1{enable-background:new    ;}
</style>
<g>
	<g>
		<path class="st0" d="M499.44,456.78c-29.58,0-54.27-8.85-73.44-26.57c-19.18-17.71-28.76-44.65-28.76-80.81V217.37
			c0-1.52,1.23-2.75,2.75-2.75h51.23c1.52,0,2.75,1.23,2.75,2.75V347.2c0,18.63,4.19,32.6,12.6,41.91
			c8.4,9.31,19.36,13.97,32.87,13.97s24.47-4.66,32.87-13.97c8.4-9.32,12.6-23.28,12.6-41.91V217.37c0-1.52,1.23-2.75,2.75-2.75
			h51.22c1.52,0,2.75,1.23,2.75,2.75V349.4c0,35.8-9.68,62.65-29.04,80.54C553.23,447.84,528.65,456.78,499.44,456.78z"/>
		<path class="st0" d="M878.23,331.22L700.85,365.1c-1.88,0.36-2.81,2.47-1.85,4.12c5.74,9.93,13.71,17.88,23.88,23.87
			c11.31,6.67,23.72,9.99,37.23,9.99c12.4,0,23.35-2.64,32.85-7.94c9.49-5.29,15.88-10.67,19.16-16.15l2.72-3.81
			c1.58-2.22,4.55-2.94,6.98-1.7l39.97,20.43c2.83,1.45,3.85,4.96,2.24,7.69c-0.23,0.38-0.46,0.78-0.71,1.2
			c-1.64,2.74-5.57,7.58-11.77,14.51c-6.21,6.94-13.05,13.06-20.53,18.34c-7.49,5.3-17.71,10.13-30.66,14.51
			c-12.96,4.38-26.74,6.57-41.33,6.57c-37.23,0-67.53-11.85-90.88-35.59c-23.36-23.72-35.04-53.1-35.04-88.14
			c0-34.67,11.85-63.96,35.59-87.87c23.72-23.9,53.11-35.86,88.14-35.86c35.04,0,64.23,11.64,87.6,34.91
			c22.81,22.74,34.84,50.81,36.06,84.22C880.54,329.76,879.57,330.96,878.23,331.22z M756.72,262.93
			c-17.89,0-33.04,5.47-45.44,16.42c-11.54,10.19-18.51,23.54-20.89,40.05c-0.27,1.85,1.42,3.39,3.25,3.04l119.13-22.76
			c1.81-0.34,2.81-2.35,1.93-3.97C802.84,273.86,783.51,262.93,756.72,262.93z"/>
		<path class="st0" d="M87.5,432.81v20.82c0,1.52-1.23,2.75-2.75,2.75H33.56c-1.52,0-2.75-1.23-2.75-2.75V60.37
			c0-1.52,1.23-2.75,2.75-2.75h51.19c1.52,0,2.75,1.23,2.75,2.75v172.06c1.82-1.82,4.47-4.01,7.94-6.57
			c3.46-2.55,11.31-6.02,23.54-10.4c12.22-4.38,25.27-6.57,39.14-6.57c33.58,0,61.68,11.59,84.31,34.77s33.94,52.83,33.94,88.96
			c0,36.14-11.32,65.79-33.94,88.96c-22.64,23.19-50.73,34.77-84.31,34.77c-13.87,0-26.65-1.91-38.32-5.75
			c-11.68-3.83-20.08-7.75-25.18-11.77L87.5,432.81z M104.47,281.43c-12.78,12.59-19.16,29.66-19.16,51.19
			c0,21.54,6.38,38.59,19.16,51.19c12.77,12.59,28.83,18.89,48.18,18.89c19.34,0,35.4-6.29,48.18-18.89
			c12.77-12.59,19.16-29.65,19.16-51.19c0-21.53-6.39-38.59-19.16-51.19c-12.78-12.59-28.84-18.89-48.18-18.89
			C133.3,262.55,117.24,268.84,104.47,281.43z"/>
		<path class="st0" d="M309.02,450.06V60.37c0-1.52,1.23-2.75,2.75-2.75h51.24c1.52,0,2.75,1.23,2.75,2.75v389.69
			c0,1.52-1.23,2.75-2.75,2.75h-51.24C310.25,452.81,309.02,451.58,309.02,450.06z"/>
		<g>
			<path class="st0" d="M911.95,16.06V76c0,1.83,0.91,3.54,2.42,4.56l80.52,54.31c1.86,1.25,4.29,1.25,6.15,0l43.97-29.66
				c1.62-1.09,1.62-3.47,0-4.56L916.24,13.78C914.42,12.55,911.95,13.86,911.95,16.06z"/>
			<path class="st0" d="M917.46,456.34l302.24-0.12c3.04,0,5.5-2.46,5.5-5.5V223.64c0-0.91-0.45-1.77-1.21-2.28l-82.74-55.81
				c-1.86-1.25-4.29-1.25-6.15,0l-43.99,29.6c-1.62,1.09-1.62,3.47,0,4.56l76.14,51.4c0.76,0.51,1.21,1.37,1.21,2.28v143.8
				c0,3.04-2.46,5.5-5.5,5.5h-60.5c-3.04,0-5.5-2.46-5.5-5.5V271.71l-28.86-19.46l-27.88,18.84V397.2c0,3.04-2.46,5.5-5.5,5.5h-60.5
				c-3.04,0-5.5-2.46-5.5-5.5V252.71c0-0.91,0.45-1.77,1.21-2.28l252.86-170.59c1.52-1.02,2.42-2.73,2.42-4.56V16.06
				c0-2.2-2.46-3.51-4.28-2.28l-307.76,206.9c-0.76,0.51-1.22,1.37-1.22,2.28v227.88C911.95,453.88,914.42,456.34,917.46,456.34z"/>
		</g>
	</g>
</g>
<g>
	<g class="st1">
		<path class="st0" d="M71.65,632.59v-98.7h27.78c11.11,0,19.58,2.43,25.42,7.29c5.83,4.86,8.75,11.13,8.75,18.83
			c0,8.98-4.17,15.86-12.5,20.62c9.72,5.04,14.58,12.92,14.58,23.64c0,8.89-3.1,15.83-9.31,20.83c-6.2,5-15.19,7.49-26.95,7.49
			H71.65z M93.18,573.2h6.25c4.07,0,7.2-0.94,9.38-2.82c2.17-1.88,3.26-4.33,3.26-7.35c0-3.02-1.09-5.48-3.26-7.35
			c-2.18-1.88-5.3-2.82-9.38-2.82h-6.25V573.2z M93.18,613.62h6.25c9.81,0,14.72-3.85,14.72-11.55s-4.91-11.55-14.72-11.55h-6.25
			V613.62z"/>
		<path class="st0" d="M232.56,546.74c9.86,9.94,14.79,22.11,14.79,36.5c0,14.39-4.93,26.55-14.79,36.5
			c-9.86,9.95-22.48,14.92-37.85,14.92c-15.37,0-27.99-4.97-37.85-14.92c-9.86-9.94-14.79-22.11-14.79-36.5
			c0-14.39,4.93-26.55,14.79-36.5c9.86-9.94,22.48-14.92,37.85-14.92C210.08,531.83,222.7,536.8,232.56,546.74z M172.35,559.87
			c-5.83,6.05-8.75,13.84-8.75,23.37c0,9.53,2.92,17.32,8.75,23.37c5.83,6.05,13.29,9.07,22.36,9.07c9.07,0,16.53-3.02,22.36-9.07
			c5.83-6.05,8.75-13.84,8.75-23.37c0-9.53-2.92-17.32-8.75-23.37s-13.29-9.07-22.36-9.07
			C185.64,550.79,178.19,553.82,172.35,559.87z"/>
		<path class="st0" d="M348.4,546.74c9.86,9.94,14.79,22.11,14.79,36.5c0,14.39-4.93,26.55-14.79,36.5
			c-9.86,9.95-22.48,14.92-37.85,14.92c-15.37,0-27.99-4.97-37.85-14.92c-9.86-9.94-14.79-22.11-14.79-36.5
			c0-14.39,4.93-26.55,14.79-36.5c9.86-9.94,22.48-14.92,37.85-14.92C325.92,531.83,338.54,536.8,348.4,546.74z M288.19,559.87
			c-5.83,6.05-8.75,13.84-8.75,23.37c0,9.53,2.92,17.32,8.75,23.37c5.83,6.05,13.29,9.07,22.36,9.07c9.07,0,16.53-3.02,22.36-9.07
			c5.83-6.05,8.75-13.84,8.75-23.37c0-9.53-2.92-17.32-8.75-23.37s-13.29-9.07-22.36-9.07
			C301.48,550.79,294.02,553.82,288.19,559.87z"/>
		<path class="st0" d="M433.61,632.59l-34.86-44.13v44.13h-21.53v-98.7h21.53v51.41l32.22-51.41h22.5l-31.9,50.37l38.57,48.33
			H433.61z"/>
		<path class="st0" d="M467.92,632.59v-98.7h21.53v98.7H467.92z"/>
		<path class="st0" d="M506.95,632.59V529.76l49.45,53.34v-49.21h21.53v102.83l-49.45-53.34v49.21H506.95z"/>
		<path class="st0" d="M672.23,594.51h-30V577.6h52.92v5.64c0,14.94-4.56,27.24-13.68,36.91c-9.12,9.67-21.6,14.5-37.43,14.5
			c-15.37,0-27.9-4.92-37.57-14.78c-9.68-9.85-14.51-22.06-14.51-36.63c0-14.48,4.84-26.67,14.51-36.57
			c9.68-9.9,22.11-14.85,37.29-14.85c5.92,0,11.39,0.67,16.39,1.99c5,1.33,8.52,2.64,10.56,3.92l3.06,2.06l-10.42,16.63
			c-5.37-3.76-11.81-5.64-19.31-5.64c-9.08,0-16.44,3-22.08,9c-5.65,6-8.47,13.81-8.47,23.44c0,9.53,2.92,17.32,8.75,23.37
			c5.83,6.05,13.29,9.07,22.36,9.07C659.5,615.68,668.71,608.62,672.23,594.51z"/>
		<path class="st0" d="M735.02,632.59l41.48-102.03l41.76,102.03h-21.43l-4.99-12.65h-30.15l-4.96,12.65H735.02z M785.16,603.03
			l-8.46-21.43l-8.4,21.43H785.16z"/>
		<path class="st0" d="M882.38,543.23c7.13,6.23,10.7,14.76,10.7,25.57c0,10.81-3.57,19.34-10.7,25.57
			c-7.13,6.23-16.44,9.35-27.92,9.35h-6.25v28.87h-21.53v-98.7h27.78C865.95,533.89,875.25,537,882.38,543.23z M854.46,552.86h-6.25
			v31.89h6.25c5.56,0,9.79-1.4,12.71-4.19c2.92-2.79,4.38-6.71,4.38-11.75c0-5.04-1.46-8.96-4.38-11.75
			C864.26,554.26,860.02,552.86,854.46,552.86z"/>
		<path class="st0" d="M962.11,543.23c7.13,6.23,10.7,14.76,10.7,25.57c0,10.81-3.57,19.34-10.7,25.57
			c-7.13,6.23-16.44,9.35-27.92,9.35h-6.25v28.87h-21.53v-98.7h27.78C945.67,533.89,954.98,537,962.11,543.23z M934.19,552.86h-6.25
			v31.89h6.25c5.56,0,9.79-1.4,12.71-4.19c2.92-2.79,4.38-6.71,4.38-11.75c0-5.04-1.46-8.96-4.38-11.75
			C943.98,554.26,939.75,552.86,934.19,552.86z"/>
	</g>
	<g class="st1">
		<path class="st0" d="M1019.45,590.33h-23.11v-52.55h21.17c1.35,0,2.66,0.07,3.92,0.22c1.26,0.15,2.75,0.52,4.45,1.13
			c1.71,0.61,3.19,1.43,4.45,2.44c1.26,1.02,2.34,2.47,3.22,4.36c0.88,1.89,1.32,4.12,1.32,6.68c0,3.32-1.18,6.11-3.53,8.38
			c3.82,2.85,5.73,6.96,5.73,12.31c0,5.35-1.56,9.53-4.67,12.53C1029.29,588.83,1024.97,590.33,1019.45,590.33z M1007.36,557.68
			h10.14c1.82,0,3.34-0.52,4.54-1.57c1.21-1.05,1.81-2.36,1.81-3.93c0-1.51-0.6-2.68-1.81-3.49c-1.21-0.81-2.72-1.22-4.54-1.22
			h-10.14V557.68z M1007.36,580.64h12.08c1.94,0,3.54-0.58,4.81-1.75c1.26-1.16,1.9-2.91,1.9-5.24c0-0.7-0.07-1.34-0.22-1.92
			c-0.15-0.58-0.34-1.08-0.57-1.48c-0.24-0.41-0.54-0.79-0.93-1.13c-0.38-0.35-0.75-0.63-1.1-0.83c-0.35-0.2-0.76-0.38-1.24-0.52
			c-0.47-0.14-0.88-0.25-1.23-0.3c-0.35-0.06-0.75-0.1-1.19-0.13c-0.44-0.03-0.78-0.04-1.01-0.04c-0.24,0-0.5,0-0.79,0h-0.44h-10.05
			V580.64z"/>
		<path class="st0" d="M1080.39,590.33h-33.25v-52.55h33.25v9.6h-22.31v11.96h17.73v9.6h-17.73v11.78h22.31V590.33z"/>
		<path class="st0" d="M1116.2,590.33h-10.94v-42.95h-16.49v-9.6h43.92v9.6h-16.49V590.33z"/>
		<path class="st0" d="M1182.22,590.33h-10.19l-3.59-9.51h-22.62l-3.61,9.51h-10.57l20.09-52.72h10.51L1182.22,590.33z
			 M1149.5,571.13h15.29l-7.62-20.2L1149.5,571.13z"/>
	</g>
</g>
</svg>
