<?xml version="1.0" encoding="utf-8"?>
<!-- Generator: Adobe Illustrator 23.0.0, SVG Export Plug-In . SVG Version: 6.00 Build 0)  -->
<svg version="1.1" id="Isolation_Mode" xmlns="http://www.w3.org/2000/svg" xmlns:xlink="http://www.w3.org/1999/xlink" x="0px"
	 y="0px" viewBox="0 0 1143.68 248.71" style="enable-background:new 0 0 1143.68 248.71;" xml:space="preserve">
<style type="text/css">
	.st0{enable-background:new    ;}
	.st1{fill:#0047BA;}
</style>
<g class="st0">
	<path class="st1" d="M17.65,235.4v-98.7h27.78c11.11,0,19.58,2.43,25.42,7.29c5.83,4.86,8.75,11.13,8.75,18.83
		c0,8.98-4.17,15.86-12.5,20.62c9.72,5.04,14.58,12.92,14.58,23.64c0,8.89-3.1,15.83-9.31,20.83c-6.2,5-15.19,7.49-26.95,7.49H17.65
		z M39.18,176.02h6.25c4.07,0,7.2-0.94,9.38-2.82c2.17-1.88,3.26-4.33,3.26-7.36c0-3.02-1.09-5.47-3.26-7.35
		c-2.18-1.88-5.3-2.82-9.38-2.82h-6.25V176.02z M39.18,216.43h6.25c9.81,0,14.72-3.85,14.72-11.55s-4.91-11.55-14.72-11.55h-6.25
		V216.43z"/>
	<path class="st1" d="M178.56,149.55c9.86,9.95,14.79,22.11,14.79,36.5c0,14.39-4.93,26.55-14.79,36.5
		c-9.86,9.95-22.48,14.92-37.85,14.92c-15.37,0-27.99-4.97-37.85-14.92c-9.86-9.94-14.79-22.11-14.79-36.5
		c0-14.39,4.93-26.55,14.79-36.5c9.86-9.94,22.48-14.92,37.85-14.92C156.09,134.64,168.7,139.61,178.56,149.55z M118.35,162.68
		c-5.83,6.05-8.75,13.84-8.75,23.37c0,9.53,2.92,17.32,8.75,23.37c5.83,6.05,13.29,9.07,22.36,9.07c9.07,0,16.53-3.02,22.36-9.07
		c5.83-6.05,8.75-13.84,8.75-23.37c0-9.53-2.92-17.32-8.75-23.37c-5.83-6.05-13.29-9.07-22.36-9.07
		C131.64,153.61,124.19,156.63,118.35,162.68z"/>
	<path class="st1" d="M294.4,149.55c9.86,9.95,14.79,22.11,14.79,36.5c0,14.39-4.93,26.55-14.79,36.5
		c-9.86,9.95-22.48,14.92-37.85,14.92c-15.37,0-27.99-4.97-37.85-14.92c-9.86-9.94-14.79-22.11-14.79-36.5
		c0-14.39,4.93-26.55,14.79-36.5c9.86-9.94,22.48-14.92,37.85-14.92C271.92,134.64,284.54,139.61,294.4,149.55z M234.19,162.68
		c-5.83,6.05-8.75,13.84-8.75,23.37c0,9.53,2.92,17.32,8.75,23.37c5.83,6.05,13.29,9.07,22.36,9.07c9.07,0,16.53-3.02,22.36-9.07
		c5.83-6.05,8.75-13.84,8.75-23.37c0-9.53-2.92-17.32-8.75-23.37c-5.83-6.05-13.29-9.07-22.36-9.07
		C247.48,153.61,240.03,156.63,234.19,162.68z"/>
	<path class="st1" d="M379.62,235.4l-34.86-44.13v44.13h-21.53v-98.7h21.53v51.41l32.22-51.41h22.5l-31.9,50.37l38.57,48.33H379.62z
		"/>
	<path class="st1" d="M413.92,235.4v-98.7h21.53v98.7H413.92z"/>
	<path class="st1" d="M452.95,235.4V132.58l49.45,53.34V136.7h21.53v102.83l-49.45-53.34v49.21H452.95z"/>
	<path class="st1" d="M618.24,197.32h-30v-16.91h52.92v5.64c0,14.94-4.56,27.24-13.68,36.91c-9.12,9.67-21.6,14.5-37.43,14.5
		c-15.37,0-27.9-4.93-37.57-14.78c-9.68-9.85-14.51-22.06-14.51-36.63c0-14.48,4.84-26.67,14.51-36.57
		c9.67-9.9,22.11-14.85,37.29-14.85c5.92,0,11.39,0.67,16.39,1.99c5,1.33,8.52,2.63,10.56,3.92l3.06,2.06l-10.42,16.63
		c-5.37-3.76-11.81-5.64-19.31-5.64c-9.08,0-16.44,3-22.08,9c-5.65,6-8.47,13.82-8.47,23.44c0,9.53,2.92,17.32,8.75,23.37
		c5.83,6.05,13.29,9.07,22.36,9.07C605.5,218.49,614.72,211.44,618.24,197.32z"/>
	<path class="st1" d="M681.02,235.4l41.48-102.03l41.76,102.03h-21.43l-4.99-12.65h-30.15l-4.96,12.65H681.02z M731.16,205.85
		l-8.46-21.43l-8.4,21.43H731.16z"/>
	<path class="st1" d="M828.38,146.05c7.13,6.23,10.7,14.76,10.7,25.57c0,10.82-3.57,19.34-10.7,25.57
		c-7.13,6.23-16.44,9.35-27.92,9.35h-6.25v28.87h-21.53v-98.7h27.78C811.95,136.7,821.25,139.82,828.38,146.05z M800.46,155.67
		h-6.25v31.89h6.25c5.56,0,9.79-1.4,12.71-4.19c2.92-2.79,4.38-6.71,4.38-11.75c0-5.04-1.46-8.96-4.38-11.75
		C810.26,157.07,806.02,155.67,800.46,155.67z"/>
	<path class="st1" d="M908.11,146.05c7.13,6.23,10.7,14.76,10.7,25.57c0,10.82-3.57,19.34-10.7,25.57
		c-7.13,6.23-16.44,9.35-27.92,9.35h-6.25v28.87h-21.53v-98.7h27.78C891.67,136.7,900.98,139.82,908.11,146.05z M880.19,155.67
		h-6.25v31.89h6.25c5.56,0,9.79-1.4,12.71-4.19c2.92-2.79,4.38-6.71,4.38-11.75c0-5.04-1.46-8.96-4.38-11.75
		C889.98,157.07,885.75,155.67,880.19,155.67z"/>
</g>
<g class="st0">
	<path class="st1" d="M965.45,193.14h-23.11v-52.55h21.17c1.35,0,2.66,0.07,3.92,0.22c1.26,0.15,2.75,0.52,4.45,1.13
		c1.71,0.61,3.19,1.43,4.45,2.45c1.26,1.02,2.34,2.47,3.22,4.36c0.88,1.89,1.32,4.12,1.32,6.68c0,3.32-1.18,6.11-3.53,8.38
		c3.82,2.85,5.73,6.95,5.73,12.31c0,5.36-1.56,9.53-4.67,12.53C975.3,191.64,970.97,193.14,965.45,193.14z M953.37,160.5h10.14
		c1.82,0,3.34-0.52,4.54-1.57c1.21-1.05,1.81-2.36,1.81-3.93c0-1.51-0.6-2.68-1.81-3.49c-1.21-0.81-2.72-1.22-4.54-1.22h-10.14
		V160.5z M953.37,183.45h12.08c1.94,0,3.54-0.58,4.81-1.75c1.26-1.16,1.9-2.91,1.9-5.24c0-0.7-0.07-1.34-0.22-1.92
		c-0.15-0.58-0.34-1.08-0.57-1.48c-0.24-0.41-0.54-0.79-0.93-1.13c-0.38-0.35-0.75-0.63-1.1-0.83c-0.35-0.2-0.76-0.38-1.24-0.52
		c-0.47-0.14-0.88-0.25-1.23-0.3c-0.35-0.06-0.75-0.1-1.19-0.13c-0.44-0.03-0.78-0.04-1.01-0.04c-0.24,0-0.5,0-0.79,0h-0.44h-10.05
		V183.45z"/>
	<path class="st1" d="M1026.39,193.14h-33.25v-52.55h33.25v9.6h-22.31v11.96h17.73v9.6h-17.73v11.78h22.31V193.14z"/>
	<path class="st1" d="M1062.2,193.14h-10.94V150.2h-16.49v-9.6h43.92v9.6h-16.49V193.14z"/>
	<path class="st1" d="M1128.22,193.14h-10.19l-3.59-9.51h-22.62l-3.61,9.51h-10.57l20.09-52.72h10.51L1128.22,193.14z
		 M1095.5,173.94h15.29l-7.62-20.2L1095.5,173.94z"/>
</g>
<g>
	<g>
		<path class="st1" d="M125.27,116.35c-6.82,0.07-12.53-1.91-16.99-5.95c-4.46-4.04-6.74-10.23-6.82-18.56l-0.31-30.44
			c0-0.35,0.28-0.64,0.63-0.64l11.81-0.12c0.35,0,0.64,0.28,0.64,0.63l0.3,29.93c0.04,4.3,1.04,7.51,3,9.63
			c1.96,2.13,4.5,3.17,7.61,3.14s5.63-1.13,7.55-3.3c1.91-2.17,2.85-5.4,2.81-9.69l-0.3-29.93c0-0.35,0.28-0.64,0.63-0.64
			l11.81-0.12c0.35,0,0.64,0.28,0.64,0.63l0.31,30.44c0.08,8.25-2.09,14.47-6.51,18.64C137.65,114.16,132,116.28,125.27,116.35z"/>
		<path class="st1" d="M212.3,86.51l-40.81,8.23c-0.43,0.09-0.64,0.58-0.42,0.95c1.35,2.28,3.2,4.09,5.56,5.45
			c2.62,1.51,5.49,2.25,8.61,2.22c2.86-0.03,5.38-0.66,7.55-1.91c2.17-1.24,3.63-2.5,4.38-3.77l0.62-0.88
			c0.36-0.51,1.04-0.69,1.6-0.41l9.26,4.62c0.66,0.33,0.9,1.13,0.53,1.77c-0.05,0.09-0.11,0.18-0.16,0.28
			c-0.37,0.64-1.27,1.76-2.68,3.37c-1.42,1.61-2.98,3.04-4.69,4.28s-4.06,2.38-7.03,3.42c-2.98,1.04-6.15,1.58-9.51,1.61
			c-8.58,0.09-15.6-2.57-21.04-7.99c-5.44-5.41-8.2-12.16-8.28-20.24c-0.08-7.99,2.58-14.77,8-20.34
			c5.41-5.57,12.16-8.39,20.24-8.47s14.84,2.53,20.28,7.84c5.31,5.19,8.15,11.63,8.51,19.33C212.83,86.17,212.61,86.45,212.3,86.51z
			 M184.13,71.05c-4.12,0.04-7.6,1.34-10.44,3.89c-2.64,2.38-4.21,5.47-4.72,9.28c-0.06,0.43,0.33,0.78,0.76,0.69l27.41-5.53
			c0.42-0.08,0.64-0.55,0.44-0.92C194.79,73.47,190.31,70.99,184.13,71.05z"/>
		<path class="st1" d="M30.24,111.79l0.05,4.8c0,0.35-0.28,0.64-0.63,0.64l-11.8,0.12c-0.35,0-0.64-0.28-0.64-0.63L16.3,26.05
			c0-0.35,0.28-0.64,0.63-0.64l11.8-0.12c0.35,0,0.64,0.28,0.64,0.63l0.4,39.67c0.42-0.42,1.02-0.94,1.81-1.53
			c0.79-0.6,2.59-1.42,5.4-2.45C39.8,60.57,42.8,60.03,46,60c7.74-0.08,14.25,2.53,19.52,7.82c5.27,5.29,7.95,12.1,8.03,20.43
			s-2.46,15.19-7.62,20.59c-5.16,5.4-11.62,8.13-19.36,8.21c-3.2,0.03-6.15-0.38-8.85-1.24c-2.7-0.86-4.65-1.74-5.83-2.65
			L30.24,111.79z M33.8,76.85c-2.92,2.93-4.35,6.88-4.3,11.85c0.05,4.97,1.56,8.88,4.54,11.76c2.97,2.87,6.69,4.29,11.15,4.24
			s8.15-1.53,11.06-4.47c2.91-2.93,4.35-6.88,4.3-11.85c-0.05-4.96-1.56-8.88-4.54-11.76c-2.98-2.87-6.69-4.29-11.15-4.24
			S36.71,73.91,33.8,76.85z"/>
		<path class="st1" d="M81.35,115.24L80.44,25.4c0-0.35,0.28-0.64,0.63-0.64l11.81-0.12c0.35,0,0.64,0.28,0.64,0.63l0.91,89.84
			c0,0.35-0.28,0.64-0.63,0.64l-11.81,0.12C81.64,115.88,81.36,115.59,81.35,115.24z"/>
		<g>
			<path class="st1" d="M219.34,13.78l0.14,13.82c0,0.42,0.22,0.81,0.57,1.05l18.69,12.33c0.43,0.28,0.99,0.28,1.42-0.01l10.07-6.94
				c0.37-0.26,0.36-0.8-0.01-1.05l-29.89-19.73C219.9,12.96,219.34,13.27,219.34,13.78z"/>
			<path class="st1" d="M221.64,115.27l69.68-0.74c0.7-0.01,1.26-0.58,1.25-1.28l-0.53-52.35c0-0.21-0.11-0.41-0.28-0.52
				L272.55,47.7c-0.43-0.28-0.99-0.28-1.42,0.01l-10.07,6.93c-0.37,0.25-0.37,0.8,0.01,1.05l17.67,11.67
				c0.18,0.12,0.28,0.31,0.28,0.52l0.34,33.15c0.01,0.7-0.55,1.27-1.26,1.28l-13.95,0.14c-0.7,0.01-1.27-0.55-1.28-1.26l-0.29-28.93
				l-6.7-4.42l-6.38,4.41l0.3,29.08c0.01,0.7-0.55,1.27-1.26,1.28l-13.95,0.14c-0.7,0.01-1.27-0.55-1.28-1.26l-0.34-33.31
				c0-0.21,0.1-0.41,0.27-0.53l57.9-39.92c0.35-0.24,0.55-0.64,0.55-1.06l-0.14-13.65c-0.01-0.51-0.57-0.8-0.99-0.52L220.1,60.95
				c-0.17,0.12-0.28,0.32-0.27,0.53l0.53,52.54C220.37,114.71,220.94,115.28,221.64,115.27z"/>
		</g>
	</g>
</g>
</svg>
